<?xml version="1.0" standalone="no"?>
<!DOCTYPE svg PUBLIC "-//W3C//DTD SVG 20010904//EN"
 "http://www.w3.org/TR/2001/REC-SVG-20010904/DTD/svg10.dtd">
<svg version="1.0" xmlns="http://www.w3.org/2000/svg"
 width="512.000000pt" height="512.000000pt" viewBox="0 0 512.000000 512.000000"
 preserveAspectRatio="xMidYMid meet">
<metadata>
Created by potrace 1.14, written by Peter Selinger 2001-2017
</metadata>
<g transform="translate(0.000000,512.000000) scale(0.100000,-0.100000)"
fill="#000000" stroke="none">
<path d="M4615 5104 c-100 -18 -107 -20 -213 -54 -106 -35 -215 -87 -250 -120
-26 -25 -26 -35 11 -215 40 -192 47 -274 51 -590 3 -263 -6 -417 -38 -660 -10
-74 -16 -112 -50 -295 -57 -316 -219 -841 -394 -1276 -204 -508 -381 -834
-576 -1057 -79 -89 -127 -130 -180 -152 -33 -14 -36 -13 -66 11 -37 31 -94
141 -105 204 -1 3 -4 14 -8 25 -3 11 -8 31 -11 45 -2 14 -9 52 -15 85 -18 105
-21 121 -27 191 -3 38 -7 85 -9 104 -5 42 -5 472 -1 550 4 73 16 216 22 260 2
19 7 60 9 90 3 30 10 80 15 110 5 30 11 72 14 93 12 76 36 203 62 317 23 104
64 250 109 390 134 414 266 895 303 1103 12 65 20 157 20 235 1 124 0 129 -28
179 -52 91 -124 131 -237 131 -78 0 -154 -20 -223 -59 -97 -54 -123 -73 -205
-148 -36 -33 -104 -110 -125 -141 -8 -12 -23 -33 -33 -45 -9 -13 -17 -28 -17
-33 0 -6 -4 -12 -9 -14 -9 -3 -79 -146 -110 -225 -36 -93 -98 -337 -115 -454
-9 -60 -15 -103 -22 -154 -3 -27 -8 -57 -9 -65 -2 -8 -6 -58 -10 -110 -4 -52
-9 -111 -10 -130 -2 -19 -4 -101 -6 -182 -1 -82 -6 -171 -10 -199 -6 -41 -117
-337 -174 -464 -7 -16 -39 -91 -70 -165 -262 -617 -444 -968 -649 -1255 -45
-63 -74 -97 -141 -169 -41 -44 -109 -96 -125 -96 -40 0 -117 102 -156 208 -57
149 -67 241 -67 592 0 266 8 433 27 527 3 15 8 48 12 73 8 59 50 262 76 369
11 46 21 89 22 95 4 19 26 96 77 274 69 241 191 594 274 797 5 11 9 22 10 25
21 62 155 361 222 495 195 390 329 571 487 660 88 49 97 62 66 87 -33 27 -165
93 -215 107 -131 39 -442 31 -596 -13 -163 -47 -243 -96 -297 -181 -25 -38
-122 -230 -122 -240 0 -3 -16 -40 -36 -82 -154 -332 -336 -812 -459 -1210 -67
-216 -157 -562 -180 -693 -3 -19 -10 -53 -15 -75 -5 -22 -11 -58 -14 -80 -4
-22 -11 -65 -16 -95 -5 -30 -11 -73 -14 -95 -2 -22 -7 -58 -10 -80 -13 -88
-16 -114 -23 -210 -10 -125 -10 -531 -1 -647 33 -392 133 -742 275 -956 41
-61 148 -174 203 -214 233 -169 513 -163 780 15 228 152 443 394 705 793 52
79 99 144 104 144 10 0 16 -30 31 -155 28 -227 111 -478 213 -637 50 -77 137
-170 197 -208 121 -78 295 -107 450 -76 184 38 295 101 531 303 167 143 303
305 473 564 42 62 79 119 83 124 15 19 81 130 148 249 305 542 537 1155 710
1881 25 105 48 204 51 220 3 17 14 71 25 120 17 78 38 194 55 300 2 17 9 55
14 85 5 30 12 78 15 105 6 49 9 74 19 145 20 147 28 503 14 631 -22 194 -61
316 -112 357 -23 17 -41 19 -168 19 -79 0 -174 -6 -213 -13z"/>
</g>
</svg>
