<svg width="24" height="24" fill="none" xmlns="http://www.w3.org/2000/svg"><path fill-rule="evenodd" clip-rule="evenodd" d="M2 6a4 4 0 0 1 4-4h8a4 4 0 0 1 4 4v8a4 4 0 0 1 0 8H7a5 5 0 0 1-5-5V6Zm16 10v4a2 2 0 1 0 0-4Zm-2 4V6a2 2 0 0 0-2-2H6a2 2 0 0 0-2 2v11a3 3 0 0 0 3 3h9Z" fill="#fff"/><path fill-rule="evenodd" clip-rule="evenodd" d="M6 7c0-.6.4-1 1-1h6a1 1 0 1 1 0 2H7a1 1 0 0 1-1-1ZM6 11c0-.6.4-1 1-1h6a1 1 0 1 1 0 2H7a1 1 0 0 1-1-1ZM6 15c0-.6.4-1 1-1h6a1 1 0 1 1 0 2H7a1 1 0 0 1-1-1Z" fill="#fff"/></svg>