<svg viewBox="0 0 24 24" fill="none" xmlns="http://www.w3.org/2000/svg">
<path fill-rule="evenodd" clip-rule="evenodd" d="M9.81087 4.31373C10.2421 3.5051 11.084 3 12.0004 3C12.9169 3 13.7587 3.5051 14.19 4.31373L20.3887 15.9364C20.8332 16.7699 20.9158 17.7494 20.6171 18.6456C20.1484 20.0516 18.8326 21 17.3505 21H6.65031C5.16822 21 3.85241 20.0516 3.38373 18.6456C3.08501 17.7494 3.16759 16.7699 3.61213 15.9364L9.81087 4.31373ZM11.0005 12C11.0005 12.5523 11.4482 13 12.0005 13C12.5528 13 13.0005 12.5523 13.0005 12V10C13.0005 9.44772 12.5528 9 12.0005 9C11.4482 9 11.0005 9.44772 11.0005 10L11.0005 12ZM12.0005 15C11.4482 15 11.0005 15.4477 11.0005 16C11.0005 16.5523 11.4482 17 12.0005 17C12.5528 17 13.0005 16.5523 13.0005 16C13.0005 15.4477 12.5528 15 12.0005 15Z" fill="currentColor"/>
</svg>
